<?xml version="1.0" encoding="utf-8"?>
<!-- Generator: Adobe Illustrator 19.0.0, SVG Export Plug-In . SVG Version: 6.00 Build 0)  -->
<svg version="1.1" id="Capa_1" xmlns="http://www.w3.org/2000/svg" xmlns:xlink="http://www.w3.org/1999/xlink" x="0px" y="0px"
	 viewBox="-134.3 381.1 230 168.1" style="enable-background:new -134.3 381.1 230 168.1;" xml:space="preserve">
<g>
	<path d="M-16.9,549.2L89.6,442.7c2.5-2.5,2.5-6.5,0-9c-2.5-2.5-6.5-2.5-9,0l-102,102l-102-102c-2.5-2.5-6.5-2.5-9,0
		c-1.2,1.2-1.9,2.9-1.9,4.5s0.6,3.3,1.9,4.5l106.5,106.6C-23.5,551.7-19.4,551.7-16.9,549.2z"/>
</g>
<g>
	<path d="M-16.9,498.6L89.6,392.1c2.5-2.5,2.5-6.5,0-9c-2.5-2.5-6.5-2.5-9,0l-102,102l-102-102c-2.5-2.5-6.5-2.5-9,0
		c-1.2,1.2-1.9,2.9-1.9,4.5s0.6,3.3,1.9,4.5l106.5,106.6C-23.5,501.1-19.4,501.1-16.9,498.6z"/>
</g>
</svg>
