<svg xmlns="http://www.w3.org/2000/svg" xmlns:xlink="http://www.w3.org/1999/xlink" width="64" height="64" viewBox="0 0 64 64">
  <defs>
    <rect id="avatar-a" width="64" height="64"/>
  </defs>
  <g fill="none" fill-rule="evenodd">
    <use fill="#E9E9E9" xlink:href="#avatar-a"/>
    <rect width="64" height="64"/>
    <g fill="#000" fill-rule="nonzero" transform="translate(18 13)">
      <path d="M14.3182883 18.5C18.4601905 18.5 21.8181818 14.3586751 21.8181818 9.25005404 21.8181818 4.14132486 20.715704 0 14.3182883 0 7.92087255 0 6.81818182 4.14132486 6.81818182 9.25005404 6.81818182 14.3586751 10.1761731 18.5 14.3182883 18.5zM.00944754986 32.375C.00126573168 31.0893447-.0069160865 32.0127682.00944754986 32.375L.00944754986 32.375zM28.6363636 32.375C28.6622727 32.1758698 28.6452273 30.9934556 28.6363636 32.375L28.6363636 32.375z"/>
      <path d="M28.6203336,31.4580547 C28.479936,22.61487 27.3229743,20.0950424 18.4695379,18.5 C18.4695379,18.5 17.2232812,20.0852694 14.3185046,20.0852694 C11.413728,20.0852694 10.167256,18.5 10.167256,18.5 C1.41043042,20.0776443 0.183108511,22.5600981 0.0217320324,31.1707709 C0.00849916118,31.8738912 0.00236685501,31.9108354 0,31.8292146 C0.000537921594,31.9821462 0.00118342751,32.2650267 0.00118342751,32.7582956 C0.00118342751,32.7582956 2.1089754,37 14.3185046,37 C26.5278186,37 28.6358257,32.7582956 28.6358257,32.7582956 C28.6358257,32.4413706 28.6360409,32.2209944 28.6363636,32.0710699 C28.6339968,32.1215459 28.6292631,32.0237083 28.6203336,31.4580547 Z"/>
    </g>
  </g>
</svg>
