<svg xmlns="http://www.w3.org/2000/svg" width="9" height="12" viewBox="0 0 9 12">
  <g fill="#FFF">
    <path d="M8.22377941,1.41298544 L6.7035,1.41298544 L6.7035,0.371825223 C6.7035,0.162254106 6.54310294,0 6.34426471,0 C6.32497059,0 6.31210294,0.00678835595 6.30582353,0.0135612134 C6.29938235,0.00678835595 6.28651471,0 6.28008824,0 L2.70704412,0 L2.68145588,0 L2.65572059,0 C2.45688235,0 2.30292647,0.162254106 2.30292647,0.371825223 L2.30292647,1.41300094 L0.776220588,1.41300094 C0.339941176,1.41300094 0,1.77126495 0,2.23105983 L0,2.82600188 L0,3.56963683 L0.673573529,3.56963683 L0.673573529,11.188714 C0.673573529,11.6485243 1.00708824,12 1.44336765,12 L7.55664706,12 C7.99292647,12 8.33285294,11.6485243 8.33285294,11.188714 L8.33285294,3.56963683 L9,3.56963683 L9,2.82600188 L9,2.23105983 C9,1.77126495 8.65992647,1.41298544 8.22377941,1.41298544 Z M3.00852941,0.743634948 L5.99147059,0.743634948 L5.99147059,1.41298544 L3.00852941,1.41298544 L3.00852941,0.743634948 L3.00852941,0.743634948 Z M7.62082353,11.1887295 C7.62082353,11.2361705 7.60152941,11.2563496 7.55664706,11.2563496 L1.44336765,11.2563496 C1.39848529,11.2563496 1.37919118,11.236155 1.37919118,11.1887295 L1.37919118,3.56962133 L7.62082353,3.56962133 L7.62082353,11.1887295 L7.62082353,11.1887295 Z M8.28797059,2.82598638 L0.712029412,2.82598638 L0.712029412,2.23104433 C0.712029412,2.18372732 0.731323529,2.15662039 0.776205882,2.15662039 L8.22377941,2.15662039 C8.26867647,2.15662039 8.28797059,2.18372732 8.28797059,2.23104433 L8.28797059,2.82598638 Z"/>
    <rect width="1" height="6" x="6" y="4"/>
    <rect width="1" height="6" x="4" y="4"/>
    <rect width="1" height="6" x="2" y="4"/>
  </g>
</svg>
